# https://github.com/mikedh/trimesh
v -0.07137531 0.00638783 0.01383931
v -0.07184397 0.00333123 0.01243337
v 0.08044724 0.09956638 0.02208609
v -0.08340477 0.05392565 0.00328244
v -0.08385815 0.05356183 0.00157249
v -0.08424880 0.05123815 -0.00334943
v -0.08475275 0.04989608 -0.00108648
v -0.08509435 0.04663960 -0.00141932
v -0.08508141 0.04442159 -0.00050176
v -0.08260644 0.05354219 0.00468420
v -0.08462105 0.05030747 0.00240094
v -0.08385625 0.05379327 -0.00211375
v -0.08347304 0.05378881 -0.00489542
v -0.08366161 0.05119383 -0.00616106
v -0.08192257 0.06071995 -0.00175362
v -0.08164293 0.06182966 -0.00407934
v -0.08071452 0.06414686 -0.00566205
v -0.06681015 0.08520435 -0.00191380
v -0.06548658 0.08741420 -0.00268245
v -0.08400020 0.05286618 -0.00287181
v -0.08266435 0.05737017 -0.00530263
v -0.08511552 0.04850454 0.00120292
v -0.08521953 0.04605409 0.00087794
v -0.07963461 0.06033403 0.00524369
v -0.08189748 0.05741896 0.00400054
v -0.08124020 0.06006810 0.00282659
v -0.08131774 0.06044139 -0.00843720
v -0.08044908 0.06386963 -0.00802199
v -0.08107679 0.06359284 -0.00313132
v -0.07992160 0.06650596 -0.00436324
v -0.07141726 0.08044346 -0.00371875
v -0.06921089 0.08316296 -0.00310920
v -0.05834619 0.05588527 -0.01958229
v -0.06037775 0.05744527 -0.02098976
v -0.05551835 0.07134525 -0.02506673
v -0.05188378 0.07287175 -0.02496094
v -0.05147702 0.07641650 -0.02595380
v -0.05728241 0.06691801 -0.02397834
v -0.05976260 0.06800826 -0.02454808
v -0.08279053 0.04126933 -0.00742034
v -0.05874300 0.06395272 -0.02322700
v -0.06051023 0.06084086 -0.02237209
v -0.06386549 0.06142216 -0.02292721
v -0.05598323 0.06429633 -0.02274301
v -0.06291663 0.05712635 -0.02140349
v -0.06422021 0.05862793 -0.02215722
v -0.07259456 0.00219788 0.00806244
v -0.07225800 0.00218942 0.01015519
v 0.08242105 0.10403778 0.02219122
v 0.08398081 0.10297542 0.02086245
v 0.08379396 0.10065918 0.01893291
v 0.08180114 0.09910636 0.01940143
v 0.08106432 0.10287491 0.02335654
v 0.07927945 0.10155673 0.02414727
v -0.08164168 0.06118793 -0.00591252
v -0.08230880 0.05629707 -0.00810620
v -0.08460368 0.04886255 -0.00336724
v -0.08306605 0.04920169 -0.00836163
v -0.08439669 0.04658574 -0.00502246
v -0.07492688 0.00625474 0.00281667
v -0.08384947 0.04320172 -0.00618426
v -0.08259814 0.05210917 0.00523229
v -0.07576541 0.07390238 -0.00372466
v -0.08465251 0.04298901 -0.00311852
v -0.08366979 0.04560274 -0.00708721
v -0.07553577 0.07455023 -0.00528335
v -0.06040197 0.09496207 -0.00956716
v -0.08142699 0.05720442 -0.01061496
v -0.08171598 0.04975978 -0.01102197
v 0.06954494 0.11474375 0.00549592
v -0.00803542 0.11210091 0.00806449
v 0.02677399 0.11707210 0.01437826
v 0.07508754 0.11145265 0.02016516
v 0.07714471 0.11032037 0.02060956
v 0.07662159 0.11174686 0.01902517
v 0.06180093 0.11369473 0.02143259
v 0.05703497 0.11434966 0.02156804
v 0.03979090 0.11577693 0.01835887
v 0.03579020 0.11911079 0.01423031
v 0.03555489 0.11708660 0.01644469
v 0.05772244 0.11648271 0.01952632
v 0.04893403 0.11943352 0.01513389
v 0.05492469 0.11653285 0.01956714
v 0.05145153 0.12093499 0.01094805
v 0.05490988 0.11924123 0.01515023
v 0.05349594 0.11826105 0.01730755
v 0.05060908 0.11651988 0.01912913
v 0.01944608 0.11668616 0.01265437
v 0.02646597 0.11904548 0.01205433
v 0.01310480 0.11955050 0.00012713
v 0.01624684 0.12014616 0.00284051
v 0.03648849 0.12090754 0.01157641
v 0.05785247 0.11847508 0.00276047
v 0.06233710 0.11584956 -0.00000325
v 0.05860065 0.11606358 -0.00153651
v 0.05627143 0.11707744 -0.00062132
v 0.06068189 0.11485686 -0.00259609
v 0.05816103 0.11772636 0.00108599
v 0.06298249 0.11673811 0.00297503
v 0.01700349 0.11983804 0.00059460
v 0.01820575 0.11909740 -0.00194103
v 0.06957439 0.10158534 0.02648303
v 0.07772335 0.10743692 0.02307451
v 0.07876728 0.10861066 0.02161626
v 0.08037904 0.10636812 0.02251546
v 0.07979731 0.10392582 0.02383096
v 0.07341968 0.10326538 0.02620837
v 0.07491025 0.10521696 0.02588286
v -0.01982336 0.09111559 -0.02456850
v -0.02615760 0.09355038 -0.02633210
v -0.01585703 0.09141869 -0.02361908
v -0.01675078 0.08924864 -0.02297803
v -0.01331296 0.09546197 -0.02413173
v -0.01200834 0.08948463 -0.02173065
v -0.01917339 0.08763021 -0.02294792
v 0.06219107 0.09480880 -0.00034307
v 0.08314747 0.09932049 0.01667591
v -0.03098439 0.11009390 -0.00143445
v -0.03105621 0.11015843 -0.00354862
v -0.02580100 0.11187962 -0.00207725
v -0.02831593 0.11119537 -0.00284655
v 0.08485590 0.10185009 0.01776768
v -0.02423170 0.11226959 -0.00500675
v -0.05702903 0.08302271 -0.02600213
v -0.02595655 0.11144973 -0.00741010
v -0.05611087 0.08189575 -0.02654858
v 0.08412996 0.10486180 0.02006172
v 0.08083530 0.09746349 0.01525415
v 0.08324070 0.10089684 0.02075765
v 0.08440226 0.10206364 0.01943656
v -0.02997146 0.10900165 0.00255528
v -0.03589708 0.09832252 0.00743511
v -0.04232184 0.10170881 0.00385620
v -0.03841720 0.10096546 0.00579537
v 0.05859643 0.09448952 -0.00160709
v 0.05919930 0.09723271 -0.00270442
v 0.05553268 0.09896673 -0.00472529
v 0.05191609 0.09315914 -0.00349704
v -0.03904932 0.10387346 0.00366886
v -0.04239965 0.10502277 0.00101975
v -0.04845191 0.10275118 -0.00167377
v 0.05997312 0.09274035 0.00002108
v -0.06472573 0.09001733 -0.00606835
v -0.06457225 0.08913134 -0.00395367
v -0.06452089 0.08655635 -0.00063885
v -0.06369074 0.08882226 -0.00220382
v -0.05756822 0.08798665 0.00337483
v -0.05514596 0.09442359 -0.01717499
v -0.05932973 0.09631995 -0.00886233
v -0.06553779 0.08957810 -0.00792235
v -0.06325541 0.09221847 -0.00875653
v -0.06678958 0.08770331 -0.00615278
v -0.08121749 0.06259375 -0.00107004
v -0.08025790 0.06523410 -0.00139885
v -0.07973725 0.06448302 0.00097372
v -0.08453435 0.04175974 -0.00080744
v -0.07734373 0.06768536 0.00182776
v -0.07859086 0.06571469 0.00187022
v -0.08422778 0.05201029 0.00237455
v -0.08228177 0.05803835 0.00196037
v -0.08515375 0.04659714 0.00291669
v -0.08492561 0.04382943 0.00157411
v -0.08393196 0.05159817 0.00348979
v -0.08353736 0.05077577 0.00468973
v -0.08468898 0.05111961 0.00109818
v -0.08316915 0.03979533 -0.00534931
v -0.07950807 0.06289639 0.00336539
v -0.07733609 0.06601968 0.00358472
v 0.03812502 0.09979125 -0.01053520
v -0.06218416 0.08652210 0.00124863
v -0.07448731 0.06773423 0.00488674
v 0.06520358 0.10333949 -0.00278005
v -0.06708226 0.08648319 -0.00383414
v -0.05995760 0.08665475 0.00266785
v 0.03630938 0.10611129 -0.01273966
v -0.06682210 0.06102216 0.01038687
v 0.06690978 0.11505356 0.01910918
v 0.07111294 0.11265498 0.00294682
v -0.07278642 0.07871840 -0.00427414
v -0.06637332 0.05644976 0.01106145
v -0.07113759 0.05934221 0.00959668
v -0.07482947 0.05593943 0.00864811
v -0.07280816 0.06665902 0.00643433
v 0.07148374 0.09221252 0.00794763
v -0.06906083 0.05728133 0.01044134
v -0.07987258 0.05287467 0.00689814
v -0.08023947 0.05651343 0.00610239
v -0.07747235 0.05679249 0.00753601
v -0.07160206 0.05570028 0.00978344
v -0.08140906 0.04885356 0.00673051
v -0.08238990 0.05086439 0.00578654
v -0.07869914 0.06725873 -0.00003663
v -0.08436987 0.04410718 0.00381469
v -0.06850408 0.06352001 0.00941382
v -0.07070164 0.06551941 0.00794171
v -0.07192493 0.06207202 0.00879076
v -0.07441599 0.06419132 0.00685341
v -0.07408058 0.06227911 0.00790120
v -0.07718626 0.06062407 0.00699385
v -0.07482349 0.06556994 0.00597004
v -0.07532351 0.06567115 -0.01888994
v -0.08392083 0.04746127 0.00525310
v -0.08058290 0.06015739 0.00404038
v -0.08460149 0.04909299 0.00341388
v 0.04976047 0.09589621 -0.00540522
v -0.07363126 0.00453759 0.01054546
v -0.07362492 0.00373872 0.00832780
v -0.07454289 0.00730848 0.01048589
v -0.07417915 0.00499153 0.00890423
v -0.07560694 0.00809675 0.00757700
v -0.07655031 0.01009719 0.00262245
v -0.08082541 0.04737350 -0.01235146
v -0.08189256 0.04514173 -0.01026979
v -0.07514691 0.06846184 -0.01785956
v -0.08330565 0.04446316 -0.00761299
v -0.08060411 0.05065870 -0.01291537
v -0.07892927 0.04859492 -0.01485770
v -0.07514882 0.04108298 -0.01448859
v -0.08124421 0.04152308 -0.00987592
v -0.07899763 0.04464792 -0.01383614
v -0.08258472 0.04335142 -0.00867347
v -0.08260315 0.04616576 -0.00930216
v -0.07973655 0.06397685 -0.01131416
v -0.08048494 0.05855158 -0.01297084
v -0.07837766 0.06648440 -0.01323463
v -0.07981599 0.05796320 -0.01443896
v -0.07849149 0.06734439 -0.01144172
v -0.07848860 0.06490316 -0.01457686
v -0.07985263 0.06193766 -0.01302364
v -0.07660553 0.06810302 -0.01579371
v -0.07742360 0.06874334 -0.01353818
v -0.07916375 0.06052377 -0.01548368
v -0.07531957 0.07257794 -0.01403920
v -0.07550830 0.07327375 -0.01205598
v -0.07684576 0.07162963 -0.01024758
v -0.07580348 0.07340863 -0.01023895
v -0.07470719 0.07516791 -0.01033809
v -0.06847645 0.08519293 -0.00514997
v -0.07257647 0.07916256 -0.00535358
v -0.07275703 0.07897496 -0.00653265
v -0.05310892 0.08445186 -0.02696744
v -0.05279055 0.08242794 -0.02697329
v -0.07523987 0.07511891 -0.00718323
v -0.07801774 0.04216625 -0.01345992
v -0.07795182 0.07017001 -0.00655167
v -0.06276954 0.05417966 -0.02008003
v -0.06088333 0.05268255 -0.01867659
v -0.05572487 0.07423815 -0.02578529
v -0.05344226 0.07943486 -0.02666248
v -0.04750983 0.07734951 -0.02555108
v -0.02829952 0.08747538 -0.02514661
v -0.04291134 0.08494757 -0.02674733
v -0.04758704 0.07943727 -0.02619483
v -0.05772319 0.07541045 -0.02591374
v -0.06092528 0.07831901 -0.02510796
v -0.06208330 0.08045671 -0.02398216
v -0.04988677 0.08145258 -0.02683736
v -0.05729298 0.08725269 -0.02275001
v -0.06209550 0.08273576 -0.02273651
v -0.05948664 0.08503556 -0.02298453
v -0.06654249 0.08069018 -0.01957237
v -0.06459795 0.08136512 -0.02140374
v -0.06323570 0.07780582 -0.02396329
v -0.06437280 0.07840042 -0.02300018
v -0.07839599 0.06320966 -0.01604317
v -0.07781631 0.07006996 -0.00944774
v -0.06276793 0.06874391 -0.02454832
v -0.05882141 0.07195546 -0.02532641
v -0.06538493 0.06917380 -0.02396977
v -0.06339397 0.06488948 -0.02376025
v -0.06685672 0.00088306 0.00913603
v -0.05951169 0.08305551 -0.02441948
v -0.07330504 0.06566180 -0.02052163
v -0.07766756 0.06200257 -0.01752100
v -0.07559185 0.06217227 -0.01962622
v -0.07702851 0.06563727 -0.01704556
v -0.08100325 0.05966952 -0.01079187
v -0.07726914 0.04904984 -0.01657461
v -0.07334470 0.04961945 -0.01886432
v -0.06182194 0.09320113 -0.01043773
v -0.07036141 0.04811273 -0.01868080
v -0.06784297 0.04678783 -0.01767443
v -0.07526553 0.05015646 -0.01819236
v -0.07308481 0.06227843 -0.02128026
v -0.07112785 0.06591797 -0.02175828
v -0.06069799 0.06422330 -0.02356203
v -0.07209670 0.05995498 -0.02173650
v -0.07399294 0.05912714 -0.02085179
v 0.05803506 0.10101104 -0.00461054
v -0.06921750 0.06089898 -0.02256343
v 0.05423314 0.10209876 -0.00631407
v -0.06662360 0.00264266 0.01248756
v -0.06837971 0.00280184 0.01335868
v -0.06704818 0.00140545 0.01120302
v 0.06653972 0.09065492 0.00559446
v 0.04074302 0.09714313 -0.00884945
v -0.07046142 0.06246680 -0.02237246
v 0.07549886 0.09417589 0.01097761
v -0.07587230 0.00802896 0.00545232
v -0.07527666 0.00680002 0.00419776
v 0.04469540 0.11571712 0.01915204
v 0.03128805 0.11607313 0.01637469
v 0.03597574 0.11477128 0.01854300
v 0.05972817 0.11794714 0.00314640
v 0.05284222 0.11482061 0.02109859
v -0.02923902 0.09028042 -0.02619257
v -0.03312920 0.09088386 -0.02672868
v -0.05994412 0.08688618 -0.02057610
v -0.05708522 0.08519781 -0.02466768
v -0.04393837 0.09093195 -0.02666446
v -0.07071798 0.05756415 -0.02183434
v -0.06943830 0.05493554 -0.02119888
v -0.03177937 0.10701454 0.00395088
v -0.05841020 0.08920656 0.00204606
v -0.07649007 0.01244250 0.00090649
v -0.07692277 0.06388876 0.00544814
v -0.07927547 0.06191631 -0.01450787
v -0.07459057 0.05950388 0.00839810
v -0.07905686 0.05014882 0.00760049
v -0.07424304 0.05082459 -0.01889379
v -0.07639828 0.00951056 0.00549629
v -0.07336160 0.05666055 -0.02085860
v -0.07357933 0.04423024 -0.01662278
v -0.07205579 0.05409060 -0.02054581
v -0.07656933 0.07275196 -0.00550459
v -0.08121045 0.04417041 -0.01105624
v -0.07533260 0.05658258 -0.01978290
v -0.06730502 0.05866557 -0.02228838
v -0.07433831 0.05306128 -0.01949068
v 0.08127779 0.09823105 0.01382196
v -0.07462195 0.00930154 0.01102182
v -0.07897050 0.05812791 -0.01604507
v -0.07923025 0.04093269 -0.01184386
v -0.06965400 0.00005231 0.00946284
v 0.07282408 0.09480209 0.00719265
v -0.07087794 0.05154062 -0.01997917
v -0.07504680 0.07029757 -0.01667484
v -0.07409318 0.07485913 -0.01384535
v -0.06605078 0.07931650 -0.02112407
v 0.06886798 0.11430574 0.00336704
v 0.06759916 0.11355673 0.00054030
v 0.04843010 0.11366805 0.02160638
v -0.07650859 0.04304738 -0.01495070
v -0.07449430 0.00507991 0.00378310
v -0.07534828 0.05963630 -0.02003941
v -0.07317878 0.00290202 0.00552548
v -0.07372287 0.00362077 0.00439439
v 0.01972553 0.09535472 -0.01448436
v -0.06688879 0.05088410 -0.01942632
v 0.06954736 0.09194526 0.00621113
v -0.06875033 0.05217682 -0.02019526
v -0.06427859 0.08026594 -0.02242136
v -0.06837064 0.00461628 0.01476475
v 0.08217991 0.10186373 0.02267391
v -0.01918933 0.10103529 -0.02561920
v -0.06895666 0.00068841 0.01081568
v -0.06856868 -0.00000001 0.00886664
v -0.01811947 0.09512608 -0.02527762
v 0.00555035 0.10482252 -0.02050690
v -0.01655716 0.10206142 -0.02492234
v -0.01427645 0.10531652 -0.02234258
v -0.01652787 0.10065261 -0.02532604
v -0.02042736 0.10187726 -0.02497441
v -0.07006251 0.00031706 0.00841511
v -0.06928872 0.00070073 0.00754296
v 0.00474387 0.10576785 -0.02049956
v -0.01302335 0.10745671 -0.01962543
v -0.01589505 0.10329982 -0.02395245
v -0.02622559 0.10224028 -0.02354650
v -0.02233501 0.10555816 -0.01996436
v -0.02360275 0.10176121 -0.02479998
v -0.05254769 0.09373514 -0.02053647
v -0.05421669 0.09367144 -0.01914827
v -0.05255972 0.09543979 -0.01844071
v -0.05055369 0.09332772 -0.02213566
v -0.01668556 0.10600767 -0.02085474
v -0.01955737 0.10627373 -0.01982132
v -0.02853885 0.09817576 -0.02643842
v -0.03168570 0.10847670 -0.01107107
v -0.03062892 0.09494490 -0.02698372
v -0.02973671 0.09319681 -0.02667682
v -0.05049570 0.09525317 -0.02046765
v -0.03331209 0.09618929 -0.02675598
v -0.00329069 0.10529914 -0.02213331
v -0.04804030 0.09499583 -0.02209610
v -0.02120746 0.10682014 -0.01844997
v -0.00355668 0.10349636 -0.02252498
v -0.03617802 0.09867733 -0.02409993
v -0.03158228 0.09600098 -0.02706450
v -0.03729854 0.09707331 -0.02530844
v -0.01364410 0.10903731 -0.01681582
v -0.03791895 0.09430867 -0.02672809
v -0.03768517 0.09955612 -0.02245073
v -0.04240378 0.09504948 -0.02486216
v -0.04154162 0.09684935 -0.02365639
v -0.03904485 0.09805242 -0.02368864
v -0.06933530 0.00395204 0.01445418
v -0.04343781 0.08953966 -0.02727167
v -0.01914804 0.10495208 -0.02171452
v -0.03904628 0.09537935 -0.02593682
v -0.01939440 0.10743038 -0.01793555
v -0.02736255 0.10039743 -0.02513769
v -0.04821496 0.09691498 -0.01999208
v -0.03614990 0.09593006 -0.02634387
v -0.04715692 0.09626339 -0.02124649
v -0.02012540 0.11055113 -0.01231478
v -0.04139096 0.10184868 -0.01681370
v -0.04043711 0.10333247 -0.01507417
v -0.00105089 0.11600766 -0.00687050
v 0.06589568 0.10279348 0.02727166
v -0.01728867 0.11173981 -0.01104940
v -0.04572640 0.09437618 -0.02377637
v -0.04845882 0.09835403 -0.01737501
v 0.00590168 0.11244240 -0.01574831
v -0.04495484 0.10232865 -0.01337724
v -0.00435032 0.11704292 -0.00204853
v -0.04288800 0.10236067 -0.01510793
v -0.03983116 0.09652253 -0.02481057
v -0.03208444 0.10678671 -0.01400842
v -0.04182164 0.10396957 -0.01267646
v -0.03362744 0.10902578 -0.00594289
v -0.02928475 0.11012798 -0.00825103
v -0.03743535 0.10744529 -0.00656166
v -0.03511296 0.10805859 -0.00888247
v -0.02767829 0.11086901 0.00041474
v -0.02561816 0.11085090 -0.00934139
v -0.02930548 0.10789847 -0.01366937
v -0.01039430 0.10639799 -0.02148647
v -0.00581083 0.11704888 0.00037227
v -0.00052415 0.11709757 -0.00433825
v -0.01361774 0.11530014 -0.00026989
v -0.03481585 0.10700989 -0.01177542
v -0.03857939 0.10719418 -0.00362936
v -0.02628563 0.10965203 0.00338240
v -0.01373972 0.11118618 0.00687485
v 0.01966417 0.11999189 0.00815664
v 0.02299811 0.11951375 0.01023640
v 0.02334565 0.12032886 0.00852521
v 0.01887887 0.11219163 0.01642332
v -0.01278530 0.10759549 0.01052651
v -0.05821670 0.09734935 -0.00844114
v -0.01508357 0.10564569 0.01093321
v 0.00468816 0.10921780 0.01471986
v -0.00887236 0.10623477 0.01252234
v -0.04586991 0.10376267 0.00039516
v -0.04707989 0.10280140 0.00071827
v -0.00763223 0.10711458 0.01252510
v -0.04523061 0.10370322 0.00143222
v -0.01615134 0.10883730 0.00834191
v -0.04256315 0.09913877 0.00495517
v 0.01409894 0.11985439 0.00500282
v -0.03921062 0.10598396 -0.00989993
v 0.00223455 0.11654291 -0.00664870
v -0.04380867 0.10360457 -0.01127994
v 0.01159056 0.11957642 0.00285110
v 0.01195006 0.11719650 -0.00640244
v -0.00210383 0.11432390 0.00788280
v -0.06318612 0.09155089 -0.01088802
v 0.01807098 0.12025027 0.00576102
v -0.06462517 0.09065980 -0.00880964
v 0.01367395 0.11782388 -0.00505885
v 0.02692559 0.11808590 -0.00489692
v 0.01067077 0.11417280 -0.01352202
v -0.07149174 0.00127050 0.00832269
v -0.02725091 0.10964435 -0.01122446
v 0.00928757 0.11462459 -0.01230683
v -0.06981274 0.00536251 0.01472206
v 0.00997958 0.11291990 -0.01538016
v -0.07080931 0.00392698 0.01413056
v -0.07326531 0.00793171 0.01256173
v -0.06713354 0.00457457 0.01428559
v -0.07060238 0.00165937 0.01201363
v -0.06873725 0.00643304 0.01481720
v -0.07071710 0.00057947 0.01000437
v -0.06799266 0.00142483 0.00756612
v -0.06775438 0.00033008 0.01009696
v -0.07188956 0.00313822 0.00453739
v -0.07322025 0.00442394 0.00344678
v -0.01629436 0.10707805 0.00967640
v -0.07287106 0.00536512 0.01276871
v -0.02901180 0.11085650 -0.00537516
v 0.01659713 0.09823209 -0.01643155
v -0.00822257 0.10462011 0.01315757
v 0.01441365 0.10761652 -0.01789207
v 0.00472920 0.10305554 -0.02057666
v -0.06510431 0.08945853 -0.00998658
v -0.02169862 0.10101046 -0.02543823
v 0.00936267 0.11122078 -0.01713302
v 0.00770284 0.11172494 -0.01660793
v -0.05092544 0.08463901 -0.02713087
v -0.05197838 0.08671824 -0.02627520
v -0.04175051 0.08916138 -0.02726656
v -0.05486912 0.08311401 -0.02688995
v -0.06374688 0.08285835 -0.02082958
v 0.00597989 0.10845850 -0.01945571
v -0.06174010 0.07350983 -0.02498966
v -0.06523454 0.07187320 -0.02393533
v -0.07723256 0.05775417 -0.01826911
v -0.07590289 0.04646147 -0.01681470
v -0.00147544 0.10263270 -0.02202369
v 0.06711994 0.10053267 -0.00069596
v 0.05065731 0.10812870 -0.00870014
v 0.06855897 0.10353819 -0.00123045
v 0.06994516 0.10129480 0.00075528
v 0.00784446 0.11366461 -0.01394542
v -0.05486289 0.08505051 -0.02617610
v 0.08038816 0.09864858 0.01194615
v 0.00481551 0.10929821 -0.01911536
v 0.03713753 0.10429689 -0.01212279
v 0.05030286 0.11687668 -0.00292169
v 0.07770491 0.10556889 0.02433831
v 0.04710974 0.11222730 -0.00894977
v 0.04468939 0.11067304 -0.01027654
v 0.08517013 0.10549174 0.01499683
v 0.06133291 0.11064460 -0.00483945
v 0.05783142 0.10467523 -0.00594838
v 0.06676444 0.10546148 -0.00249755
v 0.06897643 0.10670392 -0.00139681
v 0.08359336 0.10019197 0.01494118
v 0.07119761 0.10824262 0.00051368
v 0.07999765 0.10980308 0.00960429
v 0.08507565 0.10713766 0.01587189
v 0.07857005 0.11019876 0.00825094
v 0.07683784 0.10951442 0.00599347
v 0.06819339 0.10943824 -0.00130078
v 0.07415247 0.11100957 0.00381227
v 0.06552720 0.09695616 0.00039195
v 0.05253398 0.12136444 0.00835908
v -0.02585894 0.09035636 -0.02561021
v 0.08250506 0.10945787 0.01730625
v 0.07193251 0.09996926 0.00329516
v 0.05679338 0.11365260 -0.00519992
v 0.03619364 0.09716442 -0.01024986
v 0.07590598 0.09534597 0.00966961
v 0.07934781 0.09904441 0.01061199
v 0.08398652 0.10562719 0.01292791
v 0.08072476 0.10090574 0.01105592
v 0.08254875 0.10348244 0.01198296
v 0.07797624 0.09762827 0.01008749
v 0.05848759 0.10845188 -0.00614550
v 0.07176137 0.11126361 0.00170479
v 0.08268642 0.10070726 0.01318159
v 0.08403888 0.10147486 0.01462391
v 0.08472720 0.10748658 0.01394489
v 0.04263306 0.10986480 -0.01088264
v -0.00794331 0.10610186 -0.02189466
v 0.08390332 0.10844734 0.01767952
v 0.06280260 0.11213365 -0.00392951
v 0.08457972 0.10835571 0.01656592
v -0.01530982 0.09899899 -0.02501916
v 0.07207271 0.10460178 0.00140390
v 0.04135732 0.12181234 0.00548963
v 0.06315239 0.10689105 -0.00425411
v 0.06895131 0.11086561 -0.00041048
v 0.06726734 0.11172584 -0.00121978
v 0.08110216 0.11082452 0.01557418
v 0.08350207 0.10872073 0.01319377
v 0.05173306 0.11828418 -0.00001444
v -0.00255945 0.11684966 0.00466452
v 0.08005374 0.11172350 0.01326456
v 0.06684385 0.11558397 0.00443664
v 0.08325026 0.10977884 0.01572763
v -0.00219342 0.11764205 0.00289088
v 0.05893687 0.10228431 0.02660049
v 0.04553620 0.10899605 0.02396273
v 0.08106924 0.10825444 0.02041105
v 0.05203921 0.10637360 0.02568080
v 0.05348067 0.10873654 0.02509714
v 0.07576754 0.11290765 0.01679614
v 0.02816396 0.11013552 0.01977259
v 0.05009052 0.11091805 0.02383239
v 0.04183895 0.11368268 0.02061538
v 0.04213849 0.12184441 0.00960579
v 0.01259926 0.11839607 -0.00358816
v 0.07944043 0.11146396 0.01056130
v 0.00151509 0.11071222 0.01273509
v 0.07872820 0.11215764 0.01182667
v -0.01125366 0.10975000 0.00938269
v 0.00061278 0.11564574 -0.00820822
v 0.06252922 0.11522710 0.02014891
v 0.05536899 0.11106952 0.02383269
v 0.01916743 0.10628824 0.01912461
v 0.08311729 0.10654563 0.02033361
v 0.08157478 0.11086159 0.01373870
v 0.08444668 0.10319882 0.01421094
v 0.07900251 0.11011580 0.01963066
v 0.07931447 0.11182819 0.01453457
v 0.04475990 0.11154673 0.02283837
v 0.05296711 0.12106303 0.00717439
v 0.03315607 0.11492052 -0.01015577
v 0.05905369 0.11808629 0.01690172
v 0.05695977 0.11809341 0.01760516
v 0.03785296 0.11521647 -0.00881321
v 0.04100655 0.11328617 -0.01002306
v 0.04237260 0.11514473 -0.00787302
v 0.08464166 0.10150811 0.01582078
v 0.08521954 0.10359757 0.01636633
v 0.07012080 0.09349264 0.00561999
v 0.04008732 0.11621910 -0.00701522
v 0.03411734 0.11611972 -0.00815413
v 0.03118452 0.11606587 -0.00849197
v 0.04015671 0.11738601 -0.00519980
v 0.02491628 0.11546411 -0.01009166
v 0.06056612 0.11693917 0.00101041
v 0.00499364 0.11338773 -0.01391294
v -0.00156623 0.11603706 0.00625938
v 0.04865345 0.12153794 0.00980467
v 0.02300492 0.11797314 0.01233956
v 0.01561942 0.11716285 0.01079560
v 0.01954795 0.11860074 0.01041955
v 0.00073178 0.11741375 0.00525544
v 0.02044914 0.10896412 0.01859224
v 0.00578447 0.11128746 0.01357480
v 0.04416810 0.12155010 0.00462050
v 0.05473058 0.12037961 0.00646820
v 0.07819422 0.11156444 0.01750704
v 0.04969791 0.12152237 0.00553281
v 0.04686054 0.12158199 0.00505886
v 0.06342969 0.11577214 0.01943122
v 0.06547321 0.11447579 0.02026488
v 0.05294990 0.11301617 0.02259538
v 0.04479308 0.12209573 0.00643086
v 0.03884403 0.12188788 0.00927078
v 0.03774055 0.12197272 0.00845282
v 0.04950808 0.10823952 0.02480498
v 0.04624385 0.10564665 0.02471249
v -0.00432452 0.11696553 0.00364725
v 0.04510116 0.12196181 0.00869774
v 0.01958510 0.11405736 0.01520331
v 0.01615694 0.11977377 0.00676861
v 0.05670835 0.10868045 0.02501268
v 0.02237528 0.11141291 0.01776066
v 0.02643052 0.12032141 0.00987888
v 0.01636057 0.11547607 0.01296589
v 0.01337951 0.11222571 -0.01582564
v 0.06109386 0.11197563 -0.00474006
v 0.06147993 0.11337111 -0.00386800
v 0.05880150 0.11155507 -0.00575916
v 0.08448974 0.10892719 0.01472926
v -0.00500961 0.11717169 0.00207907
v 0.03276438 0.11997443 0.01218190
v 0.04808439 0.12196930 0.00732460
v 0.06558474 0.11532554 0.00158890
v 0.06900176 0.09813548 0.00192765
v 0.02316474 0.11612446 0.01429724
v -0.00363680 0.11757193 0.00084634
v 0.07475760 0.10094145 0.02507136
v 0.08477835 0.10385405 0.01846225
v 0.07851866 0.09638842 0.01155546
v 0.04482388 0.11778081 -0.00308186
v -0.01056161 0.11585132 0.00109539
v 0.01654169 0.11152813 -0.01604662
v 0.01705370 0.11307365 -0.01440190
v 0.04179174 0.12232579 0.00776145
v 0.05189965 0.11947972 0.01503105
v 0.06459612 0.10585767 -0.00347907
v 0.07255665 0.10987581 0.00185157
v 0.04155910 0.11101045 -0.01104430
v 0.03386906 0.10459929 -0.01318290
v 0.06477801 0.11288014 -0.00233295
v 0.05350168 0.10534599 -0.00749158
v 0.04686196 0.11081847 -0.00960972
v 0.06378331 0.11448427 -0.00125201
v 0.05120826 0.10952458 -0.00839713
v 0.07433326 0.10826161 0.00324399
f 365 475 357
f 475 365 477
f 357 475 271
f 60 244 343
f 415 441 454
f 448 147 133
f 148 149 441
f 279 281 323
f 279 324 336
f 336 281 279
f 60 323 478
f 478 323 281
f 357 271 476
f 293 471 353
f 293 476 294
f 567 564 410
f 181 194 196
f 567 180 473
f 473 564 567
f 483 194 582
f 23 8 9
f 22 8 23
f 40 211 166
f 333 244 60
f 468 463 590
f 414 463 468
f 154 29 153
f 30 29 154
f 17 29 30
f 196 194 195
f 194 134 195
f 170 446 145
f 448 446 170
f 63 30 154
f 490 242 493
f 309 259 260
f 272 259 309
f 458 494 261
f 149 148 67
f 260 259 308
f 308 259 494
f 308 494 458
f 458 148 308
f 374 148 441
f 382 372 374
f 273 201 352
f 274 201 275
f 275 273 284
f 201 273 275
f 214 261 339
f 352 201 214
f 214 339 352
f 496 493 267
f 267 269 496
f 40 166 61
f 13 21 56
f 279 323 499
f 499 323 343
f 499 320 279
f 60 343 218
f 218 323 60
f 343 323 218
f 246 477 282
f 477 478 282
f 282 349 246
f 282 478 281
f 281 349 282
f 52 117 51
f 51 129 52
f 117 122 51
f 648 122 597
f 354 129 50
f 50 648 127
f 128 476 271
f 271 298 128
f 128 117 52
f 52 476 128
f 356 293 472
f 476 293 356
f 3 129 354
f 52 129 3
f 3 476 52
f 294 476 3
f 364 365 357
f 364 477 365
f 48 474 472
f 102 353 647
f 102 410 353
f 194 181 176
f 176 180 567
f 582 194 176
f 176 565 582
f 180 176 185
f 185 176 181
f 185 181 189
f 397 293 353
f 472 293 397
f 480 1 470
f 444 483 582
f 194 483 444
f 454 441 423
f 131 448 313
f 313 434 131
f 300 211 60
f 300 299 211
f 206 480 208
f 208 480 331
f 156 211 321
f 211 299 321
f 315 333 60
f 219 333 315
f 60 211 315
f 315 211 40
f 40 219 315
f 492 490 398
f 389 492 398
f 595 97 532
f 246 34 33
f 461 462 463
f 461 574 462
f 367 428 361
f 414 428 367
f 605 411 579
f 15 153 29
f 18 168 145
f 145 19 18
f 66 243 325
f 325 63 66
f 30 63 325
f 17 30 266
f 243 150 237
f 240 243 66
f 240 150 243
f 151 150 143
f 143 149 151
f 441 149 143
f 450 134 133
f 450 195 134
f 133 147 450
f 147 195 450
f 441 446 141
f 433 423 141
f 141 423 441
f 147 448 174
f 140 131 425
f 448 131 140
f 192 63 154
f 145 446 146
f 146 19 145
f 262 259 352
f 494 259 262
f 262 261 494
f 352 339 262
f 339 261 262
f 493 255 124
f 126 255 493
f 493 496 126
f 126 496 269
f 375 372 382
f 309 372 375
f 394 400 491
f 491 400 310
f 151 149 280
f 149 67 280
f 280 458 151
f 280 148 458
f 280 67 148
f 258 309 260
f 258 372 309
f 260 308 373
f 373 258 260
f 372 258 373
f 373 308 148
f 148 374 373
f 373 374 372
f 441 415 413
f 413 374 441
f 264 273 352
f 345 275 284
f 322 324 279
f 279 320 322
f 220 333 219
f 244 333 220
f 220 343 244
f 220 499 343
f 221 219 40
f 40 61 221
f 61 59 65
f 64 59 61
f 156 9 64
f 64 9 8
f 8 59 64
f 64 211 156
f 64 61 166
f 64 166 211
f 28 55 17
f 17 266 28
f 56 21 277
f 229 224 277
f 224 68 277
f 21 13 20
f 14 13 56
f 56 277 14
f 14 277 68
f 14 68 224
f 551 665 536
f 522 648 597
f 127 648 522
f 536 544 514
f 514 522 597
f 544 522 514
f 536 665 524
f 524 544 536
f 45 34 246
f 246 349 45
f 596 122 117
f 597 122 596
f 596 514 597
f 49 50 127
f 354 50 49
f 130 50 129
f 129 51 130
f 130 51 122
f 122 648 130
f 648 50 130
f 54 3 354
f 471 3 54
f 647 353 54
f 353 471 54
f 184 298 271
f 476 356 334
f 357 476 334
f 472 474 334
f 334 356 472
f 334 364 357
f 474 364 334
f 471 293 292
f 292 3 471
f 292 293 294
f 294 3 292
f 60 478 347
f 347 478 477
f 477 364 347
f 107 108 410
f 410 102 107
f 107 54 108
f 107 102 647
f 647 54 107
f 567 565 626
f 626 176 567
f 565 176 626
f 331 480 202
f 202 480 470
f 470 1 202
f 1 190 202
f 467 397 353
f 467 190 1
f 467 319 190
f 353 410 467
f 467 185 189
f 467 410 564
f 564 473 467
f 467 473 180
f 180 185 467
f 206 48 2
f 2 480 206
f 2 48 472
f 442 444 447
f 447 479 442
f 442 479 134
f 132 134 194
f 194 444 132
f 132 442 134
f 444 442 132
f 134 479 139
f 139 448 133
f 133 134 139
f 313 448 139
f 139 479 313
f 443 576 447
f 430 411 426
f 90 574 430
f 574 453 430
f 466 453 574
f 579 453 466
f 466 605 579
f 463 605 466
f 420 415 454
f 454 424 420
f 424 481 125
f 426 379 125
f 125 430 426
f 421 481 424
f 424 423 421
f 421 423 433
f 452 424 454
f 454 423 452
f 452 423 424
f 435 434 313
f 313 578 435
f 313 479 449
f 449 578 313
f 479 578 449
f 440 479 447
f 440 578 479
f 447 576 440
f 576 578 440
f 206 208 210
f 210 321 299
f 378 389 383
f 378 383 404
f 392 400 404
f 310 400 392
f 398 310 392
f 404 383 392
f 392 389 398
f 383 389 392
f 637 532 97
f 493 242 249
f 115 34 44
f 247 477 246
f 246 33 247
f 247 33 477
f 95 97 595
f 98 97 95
f 642 607 528
f 463 462 603
f 603 590 463
f 603 600 590
f 602 600 462
f 361 428 546
f 401 377 386
f 367 377 401
f 463 414 505
f 505 605 463
f 414 605 505
f 411 605 391
f 367 401 391
f 414 367 391
f 391 605 414
f 5 15 165
f 153 15 5
f 165 22 11
f 196 195 198
f 145 168 171
f 171 170 145
f 171 174 170
f 147 174 171
f 233 230 231
f 245 325 243
f 243 266 245
f 30 325 245
f 245 266 30
f 233 231 234
f 235 266 243
f 235 231 266
f 235 234 231
f 460 237 150
f 460 150 151
f 151 458 460
f 458 486 460
f 144 146 446
f 19 146 144
f 144 446 441
f 441 143 144
f 445 446 448
f 445 141 446
f 448 140 445
f 433 141 445
f 448 170 314
f 314 174 448
f 170 174 314
f 32 192 157
f 157 18 32
f 168 18 157
f 272 309 506
f 506 124 272
f 309 375 506
f 493 124 506
f 394 491 506
f 497 126 269
f 255 126 497
f 269 297 497
f 497 297 284
f 385 375 382
f 241 491 310
f 241 310 398
f 493 506 241
f 241 506 491
f 398 490 241
f 241 490 493
f 256 124 255
f 256 264 352
f 272 124 256
f 352 259 256
f 256 259 272
f 329 322 320
f 320 499 329
f 329 499 283
f 329 283 327
f 327 322 329
f 284 297 287
f 290 269 267
f 290 297 269
f 290 287 297
f 278 220 217
f 499 220 278
f 327 283 278
f 283 499 278
f 498 345 327
f 498 332 274
f 274 275 498
f 275 345 498
f 327 278 498
f 498 278 217
f 326 220 219
f 219 221 326
f 215 221 61
f 61 65 215
f 337 230 233
f 261 214 337
f 276 201 274
f 276 214 201
f 276 337 214
f 230 337 276
f 276 231 230
f 232 224 229
f 229 317 232
f 232 226 224
f 332 226 232
f 274 332 232
f 227 28 266
f 227 231 225
f 266 231 227
f 21 55 27
f 27 277 21
f 21 20 12
f 12 20 165
f 6 20 13
f 13 14 6
f 58 14 224
f 58 65 59
f 59 14 58
f 224 226 58
f 538 551 536
f 544 524 521
f 575 521 523
f 507 535 542
f 94 97 98
f 351 45 349
f 351 349 281
f 281 336 351
f 336 312 351
f 536 514 585
f 514 596 585
f 585 538 536
f 542 538 585
f 354 49 53
f 53 49 106
f 53 54 354
f 106 108 53
f 108 54 53
f 106 49 105
f 528 607 84
f 84 591 528
f 528 591 569
f 350 271 475
f 350 184 271
f 534 184 350
f 527 350 116
f 649 128 298
f 298 184 649
f 649 184 534
f 346 347 364
f 344 300 60
f 60 347 344
f 299 300 344
f 204 202 164
f 161 202 204
f 161 22 23
f 161 11 22
f 204 11 161
f 190 319 188
f 397 467 469
f 480 2 469
f 1 480 469
f 469 467 1
f 472 397 469
f 469 2 472
f 182 467 189
f 319 467 182
f 567 410 568
f 572 301 78
f 572 303 588
f 576 443 613
f 634 576 613
f 613 629 634
f 582 565 612
f 565 588 612
f 612 443 447
f 612 632 443
f 447 444 612
f 612 444 582
f 436 611 437
f 634 629 645
f 629 72 645
f 629 303 302
f 302 72 629
f 79 92 641
f 579 411 409
f 411 430 409
f 409 453 579
f 409 430 453
f 463 466 456
f 456 466 574
f 456 461 463
f 574 461 456
f 438 624 436
f 654 90 91
f 91 624 654
f 90 646 91
f 406 401 386
f 411 391 406
f 406 391 401
f 427 406 386
f 432 420 424
f 424 379 432
f 393 427 369
f 119 121 481
f 119 421 433
f 481 421 119
f 425 431 120
f 120 121 425
f 431 121 120
f 422 379 424
f 424 125 422
f 422 125 379
f 123 125 481
f 123 121 431
f 481 121 123
f 430 125 416
f 416 646 90
f 90 430 416
f 125 123 416
f 416 123 431
f 434 435 606
f 606 131 434
f 563 611 436
f 563 451 646
f 257 249 242
f 242 490 257
f 490 492 257
f 110 358 306
f 306 307 110
f 358 110 362
f 114 34 115
f 114 33 34
f 175 661 659
f 115 44 109
f 109 44 251
f 468 590 653
f 267 493 254
f 493 249 254
f 462 574 101
f 622 552 654
f 654 642 622
f 628 642 654
f 607 642 628
f 618 622 617
f 617 622 642
f 617 642 528
f 617 602 618
f 98 558 617
f 650 602 617
f 617 558 650
f 462 600 601
f 601 603 462
f 600 603 601
f 614 602 462
f 618 602 614
f 462 101 614
f 614 101 552
f 614 622 618
f 552 622 614
f 510 95 595
f 510 602 650
f 510 558 98
f 650 558 510
f 590 600 599
f 600 602 599
f 593 590 599
f 599 595 593
f 599 510 595
f 602 510 599
f 489 414 468
f 361 546 368
f 368 546 360
f 508 546 428
f 508 489 468
f 508 428 414
f 414 489 508
f 376 367 361
f 376 377 367
f 369 377 399
f 361 371 399
f 399 371 369
f 399 376 361
f 377 376 399
f 159 5 165
f 165 11 159
f 159 11 204
f 25 164 10
f 4 164 25
f 316 171 168
f 158 157 192
f 155 192 154
f 199 198 197
f 197 198 195
f 233 234 338
f 338 486 458
f 338 460 486
f 338 234 237
f 237 460 338
f 458 261 338
f 338 337 233
f 261 337 338
f 243 237 236
f 236 235 243
f 237 234 236
f 234 235 236
f 66 63 179
f 63 192 179
f 32 18 173
f 173 18 19
f 19 144 173
f 173 144 143
f 118 445 140
f 118 140 425
f 425 121 118
f 433 445 118
f 118 119 433
f 121 119 118
f 394 506 412
f 412 506 375
f 412 385 394
f 375 385 412
f 284 273 285
f 285 497 284
f 288 345 284
f 284 287 288
f 288 287 322
f 327 345 288
f 288 322 327
f 322 287 311
f 287 290 311
f 324 322 311
f 311 336 324
f 311 312 336
f 328 312 311
f 267 328 311
f 311 290 267
f 332 498 212
f 212 498 217
f 217 220 212
f 220 326 212
f 225 231 228
f 231 276 228
f 277 27 223
f 229 277 223
f 55 28 223
f 223 27 55
f 223 228 229
f 225 228 223
f 223 227 225
f 28 227 223
f 16 55 21
f 21 12 16
f 16 12 165
f 16 29 17
f 17 55 16
f 16 15 29
f 165 15 16
f 57 14 59
f 57 6 14
f 57 59 8
f 165 20 7
f 20 6 7
f 7 22 165
f 6 57 7
f 8 22 7
f 7 57 8
f 537 538 542
f 551 538 537
f 542 535 537
f 504 551 537
f 537 535 504
f 503 551 504
f 127 522 549
f 549 547 127
f 604 94 98
f 643 94 604
f 97 94 663
f 663 94 643
f 643 341 663
f 663 637 97
f 575 70 577
f 70 615 577
f 577 615 528
f 665 520 657
f 657 524 665
f 554 541 657
f 542 585 543
f 543 585 596
f 511 108 106
f 106 105 511
f 127 547 583
f 583 49 127
f 583 105 49
f 592 591 85
f 591 84 85
f 85 655 592
f 85 84 607
f 607 655 85
f 116 350 142
f 475 477 142
f 135 116 142
f 504 531 335
f 350 527 644
f 519 596 117
f 519 543 596
f 542 543 519
f 519 507 542
f 519 649 507
f 535 507 539
f 507 649 539
f 539 649 534
f 534 335 539
f 539 335 531
f 504 535 539
f 539 531 504
f 474 48 47
f 347 346 47
f 204 164 163
f 163 164 4
f 163 159 204
f 4 159 163
f 190 188 186
f 191 202 190
f 331 202 193
f 202 161 193
f 193 208 331
f 193 210 208
f 193 161 210
f 321 210 162
f 210 161 162
f 156 321 162
f 162 9 156
f 23 9 162
f 162 161 23
f 318 188 319
f 319 182 318
f 199 188 318
f 189 181 318
f 318 182 189
f 318 181 196
f 196 198 318
f 318 198 199
f 410 108 631
f 631 568 410
f 108 581 631
f 581 568 631
f 571 588 565
f 571 568 581
f 77 581 108
f 177 569 591
f 342 572 588
f 301 572 342
f 342 305 301
f 301 305 87
f 86 79 87
f 588 303 439
f 439 632 588
f 439 303 629
f 629 613 439
f 439 613 443
f 443 632 439
f 588 632 570
f 570 612 588
f 632 612 570
f 641 92 633
f 436 437 633
f 633 438 436
f 610 437 611
f 611 606 610
f 80 302 303
f 80 572 78
f 303 572 80
f 72 302 80
f 80 79 72
f 78 301 80
f 80 87 79
f 301 87 80
f 573 655 607
f 573 628 654
f 607 628 573
f 92 79 82
f 82 79 86
f 82 573 92
f 655 573 82
f 82 86 592
f 592 655 82
f 624 91 459
f 459 91 451
f 436 624 459
f 459 451 436
f 646 451 455
f 455 91 646
f 451 91 455
f 465 379 426
f 465 427 379
f 406 427 465
f 426 411 465
f 411 406 465
f 370 427 386
f 369 427 370
f 386 377 370
f 370 377 369
f 379 427 419
f 427 393 419
f 389 378 355
f 404 400 390
f 390 378 404
f 429 431 646
f 646 416 429
f 429 416 431
f 634 606 457
f 457 606 578
f 457 576 634
f 457 578 576
f 71 435 578
f 578 606 71
f 71 606 435
f 425 131 627
f 611 563 627
f 436 451 630
f 630 563 436
f 451 563 630
f 492 307 252
f 252 257 492
f 252 307 306
f 306 253 252
f 253 257 252
f 502 661 175
f 291 661 516
f 516 289 291
f 172 289 516
f 553 172 516
f 296 114 533
f 381 110 307
f 380 362 110
f 110 381 380
f 389 355 380
f 380 355 362
f 492 389 380
f 380 307 492
f 380 381 307
f 33 114 138
f 138 114 296
f 477 33 138
f 135 142 138
f 138 142 477
f 169 661 291
f 291 296 169
f 296 533 169
f 482 659 169
f 169 533 482
f 112 114 115
f 115 109 112
f 529 109 251
f 251 36 529
f 306 358 529
f 358 109 529
f 113 109 358
f 113 659 482
f 594 652 590
f 595 532 594
f 593 595 594
f 594 590 593
f 340 341 643
f 340 70 575
f 643 70 340
f 541 341 526
f 575 523 526
f 526 521 524
f 526 523 521
f 524 657 526
f 526 657 541
f 551 503 518
f 665 551 518
f 518 520 665
f 555 541 554
f 554 548 555
f 251 44 41
f 41 36 251
f 41 44 34
f 552 101 100
f 100 90 654
f 654 552 100
f 100 574 90
f 100 101 574
f 643 604 99
f 528 615 589
f 589 617 528
f 615 617 589
f 98 95 96
f 96 510 98
f 95 510 96
f 495 508 652
f 488 508 468
f 652 508 488
f 360 546 384
f 546 508 384
f 508 495 384
f 384 355 360
f 362 355 384
f 4 25 160
f 160 159 4
f 5 159 160
f 153 5 160
f 154 153 160
f 187 188 199
f 187 186 188
f 190 186 187
f 187 191 190
f 167 158 192
f 192 155 167
f 168 157 167
f 157 158 167
f 171 316 200
f 147 171 200
f 200 316 199
f 199 197 200
f 238 179 31
f 32 173 31
f 31 173 238
f 31 192 32
f 31 179 192
f 239 240 66
f 66 179 239
f 239 238 240
f 239 179 238
f 152 173 143
f 238 173 152
f 152 143 150
f 150 240 152
f 240 238 152
f 263 256 255
f 255 497 263
f 497 285 263
f 263 285 273
f 273 264 263
f 264 256 263
f 213 326 221
f 213 212 326
f 69 58 226
f 69 226 332
f 265 317 229
f 229 228 265
f 265 232 317
f 265 228 276
f 265 276 274
f 274 232 265
f 137 296 291
f 291 289 137
f 501 527 116
f 116 172 501
f 172 503 501
f 501 503 504
f 504 644 501
f 501 644 527
f 547 549 562
f 562 530 547
f 637 663 660
f 660 663 341
f 660 548 637
f 660 555 548
f 660 341 541
f 541 555 660
f 295 350 475
f 475 142 295
f 295 142 350
f 598 644 504
f 350 644 598
f 504 335 598
f 534 350 598
f 598 335 534
f 128 649 330
f 649 519 330
f 117 128 330
f 330 519 117
f 474 47 464
f 464 47 346
f 464 364 474
f 464 346 364
f 347 47 207
f 207 48 206
f 207 47 48
f 299 344 207
f 207 344 347
f 62 164 202
f 202 191 62
f 191 187 62
f 10 164 62
f 62 25 10
f 62 187 25
f 625 571 565
f 568 571 625
f 625 565 567
f 567 568 625
f 108 580 76
f 76 77 108
f 580 77 76
f 621 77 305
f 305 342 621
f 621 571 581
f 581 77 621
f 588 571 621
f 621 342 588
f 81 77 580
f 108 511 103
f 103 511 105
f 105 583 566
f 566 583 547
f 547 530 586
f 586 566 547
f 569 177 75
f 74 586 75
f 616 569 75
f 75 586 530
f 75 562 616
f 530 562 75
f 108 103 620
f 620 103 74
f 620 580 108
f 88 606 634
f 634 645 88
f 88 645 72
f 89 633 437
f 641 633 89
f 89 79 641
f 72 79 89
f 437 610 89
f 654 624 623
f 623 573 654
f 92 573 623
f 623 633 92
f 624 438 623
f 438 633 623
f 415 420 417
f 417 413 415
f 378 371 487
f 487 355 378
f 363 371 361
f 361 368 363
f 363 487 371
f 355 487 363
f 363 368 360
f 360 355 363
f 403 385 382
f 382 374 403
f 374 413 403
f 413 417 403
f 388 393 369
f 559 606 611
f 611 627 559
f 131 606 559
f 559 627 131
f 640 627 563
f 646 431 640
f 640 563 646
f 482 533 348
f 348 533 114
f 358 362 550
f 509 659 661
f 661 169 509
f 509 169 659
f 114 112 111
f 111 112 109
f 482 348 111
f 111 348 114
f 111 113 482
f 109 113 111
f 250 36 253
f 250 529 36
f 250 253 306
f 306 529 250
f 652 594 658
f 658 495 652
f 484 495 658
f 512 594 532
f 662 658 512
f 512 658 594
f 575 526 178
f 178 526 341
f 178 340 575
f 341 340 178
f 553 518 517
f 517 518 503
f 517 503 172
f 520 518 525
f 554 657 525
f 525 657 520
f 525 548 554
f 525 518 548
f 662 512 638
f 532 637 638
f 638 512 532
f 37 257 253
f 249 257 37
f 253 36 37
f 248 254 249
f 249 37 248
f 270 328 267
f 267 39 270
f 270 39 328
f 34 45 42
f 42 41 34
f 45 41 42
f 46 41 45
f 46 312 328
f 46 351 312
f 45 351 46
f 561 615 70
f 561 99 615
f 561 70 643
f 643 99 561
f 93 604 98
f 98 617 93
f 93 617 615
f 635 488 468
f 652 488 635
f 468 653 635
f 590 652 635
f 635 653 590
f 24 187 199
f 199 316 24
f 203 25 24
f 25 187 24
f 24 167 203
f 24 316 168
f 168 167 24
f 26 160 25
f 26 25 203
f 154 160 26
f 203 167 26
f 26 155 154
f 26 167 155
f 147 200 183
f 183 200 197
f 183 195 147
f 183 197 195
f 212 213 222
f 222 69 212
f 222 215 65
f 65 58 222
f 58 69 222
f 221 215 222
f 222 213 221
f 332 212 216
f 216 69 332
f 212 69 216
f 205 138 296
f 296 137 205
f 205 137 138
f 136 137 289
f 136 172 116
f 136 289 172
f 136 116 135
f 135 138 136
f 138 137 136
f 544 521 557
f 209 210 299
f 299 207 209
f 206 210 209
f 209 207 206
f 83 87 305
f 305 77 83
f 77 81 83
f 86 87 83
f 592 86 83
f 83 81 592
f 74 103 104
f 104 586 74
f 566 586 104
f 104 103 105
f 105 566 104
f 74 75 73
f 73 75 177
f 73 620 74
f 177 620 73
f 580 620 619
f 619 620 177
f 592 81 619
f 619 81 580
f 619 591 592
f 619 177 591
f 609 610 606
f 606 88 609
f 608 89 610
f 610 609 608
f 608 609 88
f 608 88 72
f 72 89 608
f 408 419 393
f 408 432 379
f 379 419 408
f 420 432 408
f 408 417 420
f 390 388 402
f 402 371 378
f 378 390 402
f 369 371 402
f 402 388 369
f 385 403 405
f 405 395 385
f 403 395 405
f 418 400 394
f 418 390 400
f 394 385 418
f 385 395 418
f 651 640 431
f 627 640 651
f 651 431 425
f 425 627 651
f 545 502 175
f 656 172 553
f 553 517 656
f 656 517 172
f 664 502 662
f 662 638 664
f 515 518 553
f 548 518 515
f 553 516 540
f 540 515 553
f 638 515 540
f 502 664 540
f 540 664 638
f 661 502 540
f 540 516 661
f 39 248 35
f 35 248 37
f 35 37 36
f 254 248 268
f 268 248 39
f 267 254 268
f 268 39 267
f 328 39 43
f 43 46 328
f 304 99 604
f 604 93 304
f 615 99 304
f 304 93 615
f 658 545 359
f 359 545 175
f 639 584 562
f 575 584 639
f 544 557 639
f 639 521 575
f 639 557 521
f 639 562 549
f 639 522 544
f 639 549 522
f 575 577 560
f 560 584 575
f 560 577 528
f 528 569 560
f 562 584 560
f 417 408 407
f 407 403 417
f 407 408 393
f 393 403 407
f 396 388 390
f 390 418 396
f 393 388 396
f 396 418 395
f 396 403 393
f 396 395 403
f 513 658 662
f 513 545 658
f 662 502 513
f 502 545 513
f 548 515 636
f 636 515 638
f 637 548 636
f 636 638 637
f 39 35 286
f 41 46 286
f 286 43 39
f 46 43 286
f 484 658 366
f 658 359 366
f 366 495 484
f 366 384 495
f 362 384 387
f 387 550 362
f 384 366 387
f 387 366 359
f 175 659 485
f 485 359 175
f 659 113 485
f 485 113 358
f 358 550 485
f 562 560 556
f 556 569 616
f 616 562 556
f 41 286 38
f 38 286 35
f 36 41 38
f 38 35 36
f 550 387 500
f 500 387 359
f 500 485 550
f 359 485 500
f 587 560 569
f 569 556 587
f 587 556 560

